# xmcd CD database file
#
# Track frame offsets:
#	150
#	15455
#	31675
#	49539
#	66905
#	80859
#	98181
#	112541
#	128271
#	145413
#	161323
#	178033
#	193193
#	209401
#
# Disc length: 2983 seconds
#
# Revision: 0
# Processed by: cddbd v1.5.2PL0 Copyright (c) Steve Scherf et al.
# Submitted via: CD2WAV32(JP) R3.22
#
DISCID=b00ba50e
DTITLE=Jolanda Zoomer - verliefd voor altijd
DYEAR=2011
DGENRE=Pop
TTITLE0=weer in de wolken
TTITLE1=het paradijs diep in jouw ogen
TTITLE2=ik ben gelukkig zonder jou
TTITLE3=een keer verliefd , verliefd voor altijd
TTITLE4=in mijn dromen zie ik jou gezicht
TTITLE5=dans nog een keer met mij
TTITLE6=kilimanjaro
TTITLE7=ik wil zo graag altijd (met jou samen zijn)
TTITLE8=sterk genoeg
TTITLE9=jij en ik samen een
TTITLE10=laat mij in jou leven
TTITLE11=zie ik die glimlach in je ogen
TTITLE12=het is maar dat je 't weet
TTITLE13=dans de zumba met mij
EXTD=
EXTT0=
EXTT1=
EXTT2=
EXTT3=
EXTT4=
EXTT5=
EXTT6=
EXTT7=
EXTT8=
EXTT9=
EXTT10=
EXTT11=
EXTT12=
EXTT13=
PLAYORDER=
